<svg width="26" height="20" viewBox="0 0 26 20" fill="none" xmlns="http://www.w3.org/2000/svg">
<path fill-rule="evenodd" clip-rule="evenodd" d="M18.178 19C18.178 18.448 18.621 18 19.168 18H20.157C20.704 18 21.147 18.448 21.147 19C21.147 19.552 20.704 20 20.157 20H19.168C18.621 20 18.178 19.552 18.178 19ZM10.26 19C10.26 18.448 10.703 18 11.25 18H12.24C12.786 18 13.229 18.448 13.229 19C13.229 19.552 12.786 20 12.24 20H11.25C10.703 20 10.26 19.552 10.26 19ZM8.69303 6L10.74 13.497C10.875 13.99 11.357 14.301 11.857 14.217L20.751 12.72C21.125 12.657 21.43 12.383 21.537 12.015L22.915 7.282C23.102 6.642 22.626 6 21.966 6H8.69303ZM1.35303 1C1.35303 0.448 1.79603 0 2.34303 0H4.79403C6.13003 0 7.30103 0.901 7.65603 2.202L8.14703 4H21.966C23.948 4 25.373 5.925 24.814 7.846L23.436 12.58C23.115 13.683 22.198 14.503 21.076 14.692L12.182 16.19C10.682 16.443 9.23603 15.51 8.83203 14.029L5.74803 2.734C5.63003 2.3 5.23903 2 4.79403 2H2.34303C1.79603 2 1.35303 1.552 1.35303 1Z" fill="#CCCCCC"/>
</svg>
