<svg width="26" height="26" viewBox="0 0 26 26" fill="none" xmlns="http://www.w3.org/2000/svg">
<path d="M13 4.75C12.6685 4.75 12.3505 4.8817 12.1161 5.11612C11.8817 5.35054 11.75 5.66848 11.75 6C11.75 6.33152 11.8817 6.64946 12.1161 6.88388C12.3505 7.1183 12.6685 7.25 13 7.25C13.3315 7.25 13.6495 7.1183 13.8839 6.88388C14.1183 6.64946 14.25 6.33152 14.25 6C14.25 5.66848 14.1183 5.35054 13.8839 5.11612C13.6495 4.8817 13.3315 4.75 13 4.75ZM10.25 6C10.25 5.27065 10.5397 4.57118 11.0555 4.05546C11.5712 3.53973 12.2707 3.25 13 3.25C13.7293 3.25 14.4288 3.53973 14.9445 4.05546C15.4603 4.57118 15.75 5.27065 15.75 6C15.75 6.72935 15.4603 7.42882 14.9445 7.94454C14.4288 8.46027 13.7293 8.75 13 8.75C12.2707 8.75 11.5712 8.46027 11.0555 7.94454C10.5397 7.42882 10.25 6.72935 10.25 6ZM13 11.75C12.6685 11.75 12.3505 11.8817 12.1161 12.1161C11.8817 12.3505 11.75 12.6685 11.75 13C11.75 13.3315 11.8817 13.6495 12.1161 13.8839C12.3505 14.1183 12.6685 14.25 13 14.25C13.3315 14.25 13.6495 14.1183 13.8839 13.8839C14.1183 13.6495 14.25 13.3315 14.25 13C14.25 12.6685 14.1183 12.3505 13.8839 12.1161C13.6495 11.8817 13.3315 11.75 13 11.75ZM10.25 13C10.25 12.2707 10.5397 11.5712 11.0555 11.0555C11.5712 10.5397 12.2707 10.25 13 10.25C13.7293 10.25 14.4288 10.5397 14.9445 11.0555C15.4603 11.5712 15.75 12.2707 15.75 13C15.75 13.7293 15.4603 14.4288 14.9445 14.9445C14.4288 15.4603 13.7293 15.75 13 15.75C12.2707 15.75 11.5712 15.4603 11.0555 14.9445C10.5397 14.4288 10.25 13.7293 10.25 13ZM13 18.75C12.6685 18.75 12.3505 18.8817 12.1161 19.1161C11.8817 19.3505 11.75 19.6685 11.75 20C11.75 20.3315 11.8817 20.6495 12.1161 20.8839C12.3505 21.1183 12.6685 21.25 13 21.25C13.3315 21.25 13.6495 21.1183 13.8839 20.8839C14.1183 20.6495 14.25 20.3315 14.25 20C14.25 19.6685 14.1183 19.3505 13.8839 19.1161C13.6495 18.8817 13.3315 18.75 13 18.75ZM10.25 20C10.25 19.2707 10.5397 18.5712 11.0555 18.0555C11.5712 17.5397 12.2707 17.25 13 17.25C13.7293 17.25 14.4288 17.5397 14.9445 18.0555C15.4603 18.5712 15.75 19.2707 15.75 20C15.75 20.7293 15.4603 21.4288 14.9445 21.9445C14.4288 22.4603 13.7293 22.75 13 22.75C12.2707 22.75 11.5712 22.4603 11.0555 21.9445C10.5397 21.4288 10.25 20.7293 10.25 20Z" fill="black"/>
</svg>
