<svg width="26" height="26" viewBox="0 0 26 26" fill="none" xmlns="http://www.w3.org/2000/svg">
<path d="M12.528 22.583C12.6615 22.6911 12.8282 22.7501 13 22.7501C13.1718 22.7501 13.3385 22.6911 13.472 22.583L19.472 17.726C19.5486 17.664 19.6122 17.5876 19.6592 17.501C19.7062 17.4144 19.7357 17.3195 19.746 17.2215C19.7563 17.1235 19.7472 17.0245 19.7192 16.93C19.6913 16.8356 19.645 16.7476 19.583 16.671C19.521 16.5944 19.4446 16.5308 19.358 16.4838C19.2714 16.4368 19.1765 16.4073 19.0785 16.397C18.9805 16.3867 18.8815 16.3958 18.787 16.4238C18.6926 16.4517 18.6046 16.498 18.528 16.56L13.75 20.428V6C13.75 5.80109 13.671 5.61032 13.5303 5.46967C13.3897 5.32902 13.1989 5.25 13 5.25C12.8011 5.25 12.6103 5.32902 12.4697 5.46967C12.329 5.61032 12.25 5.80109 12.25 6V20.428L7.472 16.56C7.31738 16.4348 7.11936 16.3762 6.92151 16.397C6.72366 16.4178 6.54218 16.5164 6.417 16.671C6.29182 16.8256 6.23319 17.0236 6.254 17.2215C6.27482 17.4193 6.37338 17.6008 6.528 17.726L12.528 22.583ZM3.75 7C3.75 7.414 4.086 7.75 4.5 7.75H5C5.19891 7.75 5.38968 7.67098 5.53033 7.53033C5.67098 7.38968 5.75 7.19891 5.75 7C5.75 6.80109 5.67098 6.61032 5.53033 6.46967C5.38968 6.32902 5.19891 6.25 5 6.25H4.5C4.30109 6.25 4.11032 6.32902 3.96967 6.46967C3.82902 6.61032 3.75 6.80109 3.75 7ZM7.75 7C7.75 7.414 8.086 7.75 8.5 7.75H9C9.19891 7.75 9.38968 7.67098 9.53033 7.53033C9.67098 7.38968 9.75 7.19891 9.75 7C9.75 6.80109 9.67098 6.61032 9.53033 6.46967C9.38968 6.32902 9.19891 6.25 9 6.25H8.5C8.30109 6.25 8.11032 6.32902 7.96967 6.46967C7.82902 6.61032 7.75 6.80109 7.75 7ZM15.75 7C15.75 7.414 16.086 7.75 16.5 7.75H17C17.1989 7.75 17.3897 7.67098 17.5303 7.53033C17.671 7.38968 17.75 7.19891 17.75 7C17.75 6.80109 17.671 6.61032 17.5303 6.46967C17.3897 6.32902 17.1989 6.25 17 6.25H16.5C16.3011 6.25 16.1103 6.32902 15.9697 6.46967C15.829 6.61032 15.75 6.80109 15.75 7ZM19.75 7C19.75 7.414 20.086 7.75 20.5 7.75H21C21.1989 7.75 21.3897 7.67098 21.5303 7.53033C21.671 7.38968 21.75 7.19891 21.75 7C21.75 6.80109 21.671 6.61032 21.5303 6.46967C21.3897 6.32902 21.1989 6.25 21 6.25H20.5C20.3011 6.25 20.1103 6.32902 19.9697 6.46967C19.829 6.61032 19.75 6.80109 19.75 7ZM5.75 4C5.75 4.414 6.086 4.75 6.5 4.75H7C7.19891 4.75 7.38968 4.67098 7.53033 4.53033C7.67098 4.38968 7.75 4.19891 7.75 4C7.75 3.80109 7.67098 3.61032 7.53033 3.46967C7.38968 3.32902 7.19891 3.25 7 3.25H6.5C6.30109 3.25 6.11032 3.32902 5.96967 3.46967C5.82902 3.61032 5.75 3.80109 5.75 4ZM9.75 4C9.75 4.414 10.086 4.75 10.5 4.75H11C11.1989 4.75 11.3897 4.67098 11.5303 4.53033C11.671 4.38968 11.75 4.19891 11.75 4C11.75 3.80109 11.671 3.61032 11.5303 3.46967C11.3897 3.32902 11.1989 3.25 11 3.25H10.5C10.3011 3.25 10.1103 3.32902 9.96967 3.46967C9.82902 3.61032 9.75 3.80109 9.75 4ZM21.75 4C21.75 4.414 22.086 4.75 22.5 4.75H23C23.1989 4.75 23.3897 4.67098 23.5303 4.53033C23.671 4.38968 23.75 4.19891 23.75 4C23.75 3.80109 23.671 3.61032 23.5303 3.46967C23.3897 3.32902 23.1989 3.25 23 3.25H22.5C22.3011 3.25 22.1103 3.32902 21.9697 3.46967C21.829 3.61032 21.75 3.80109 21.75 4ZM1.75 4C1.75 4.414 2.086 4.75 2.5 4.75H3C3.19891 4.75 3.38968 4.67098 3.53033 4.53033C3.67098 4.38968 3.75 4.19891 3.75 4C3.75 3.80109 3.67098 3.61032 3.53033 3.46967C3.38968 3.32902 3.19891 3.25 3 3.25H2.5C2.30109 3.25 2.11032 3.32902 1.96967 3.46967C1.82902 3.61032 1.75 3.80109 1.75 4ZM17.75 4C17.75 4.414 18.086 4.75 18.5 4.75H19C19.1989 4.75 19.3897 4.67098 19.5303 4.53033C19.671 4.38968 19.75 4.19891 19.75 4C19.75 3.80109 19.671 3.61032 19.5303 3.46967C19.3897 3.32902 19.1989 3.25 19 3.25H18.5C18.3011 3.25 18.1103 3.32902 17.9697 3.46967C17.829 3.61032 17.75 3.80109 17.75 4ZM13.75 4C13.75 4.414 14.086 4.75 14.5 4.75H15C15.1989 4.75 15.3897 4.67098 15.5303 4.53033C15.671 4.38968 15.75 4.19891 15.75 4C15.75 3.80109 15.671 3.61032 15.5303 3.46967C15.3897 3.32902 15.1989 3.25 15 3.25H14.5C14.3011 3.25 14.1103 3.32902 13.9697 3.46967C13.829 3.61032 13.75 3.80109 13.75 4Z" fill="black"/>
</svg>
