<svg width="26" height="26" viewBox="0 0 26 26" fill="none" xmlns="http://www.w3.org/2000/svg">
<path d="M5.30201 18.922C6.17227 19.5161 6.892 20.305 7.40401 21.226L9.73101 20.917C10.0032 20.8808 10.2558 20.7561 10.45 20.562L17.991 13.021C18.1324 12.8843 18.3218 12.8086 18.5185 12.8102C18.7151 12.8119 18.9033 12.8906 19.0424 13.0296C19.1815 13.1686 19.2605 13.3567 19.2623 13.5533C19.2641 13.75 19.1886 13.9395 19.052 14.081L11.511 21.623C11.0836 22.0503 10.5272 22.3248 9.92802 22.404L3.59901 23.243C3.47569 23.2594 3.35022 23.2448 3.23393 23.2006C3.11763 23.1564 3.01415 23.084 2.93281 22.9899C2.85147 22.8957 2.79482 22.7828 2.76798 22.6614C2.74113 22.5399 2.74492 22.4136 2.77901 22.294L4.63601 15.792C4.76501 15.343 5.00601 14.934 5.33601 14.603L12.459 7.48C12.5287 7.41033 12.6114 7.35507 12.7024 7.31736C12.7934 7.27966 12.891 7.26026 12.9895 7.26026C13.088 7.26026 13.1856 7.27966 13.2766 7.31736C13.3676 7.35507 13.4503 7.41033 13.52 7.48C13.5897 7.54966 13.6449 7.63237 13.6826 7.72339C13.7203 7.81441 13.7398 7.91197 13.7398 8.0105C13.7398 8.10902 13.7203 8.20658 13.6826 8.2976C13.6449 8.38862 13.5897 8.47133 13.52 8.541L6.39701 15.664C6.24701 15.814 6.13701 16 6.07901 16.204L5.30201 18.922ZM20.065 12.151C20.0109 12.1088 19.9622 12.0601 19.92 12.006L14.543 6.61C14.4834 6.567 14.431 6.51466 14.388 6.455L13.632 5.696C12.926 4.988 13.988 3.929 14.694 4.637L14.998 4.942L16.059 3.881C16.5779 3.36847 17.2792 3.08306 18.0085 3.08756C18.7378 3.09206 19.4355 3.3861 19.948 3.905L22.639 6.63C23.1493 7.14694 23.4344 7.84479 23.432 8.57118C23.4295 9.29757 23.1398 9.99349 22.626 10.507L21.584 11.55L21.874 11.841C22.579 12.549 21.517 13.608 20.811 12.9L20.065 12.151ZM20.525 10.488L21.566 9.446C21.7993 9.21247 21.9308 8.89614 21.9318 8.56603C21.9327 8.23592 21.803 7.91884 21.571 7.684L18.88 4.959C18.7641 4.84193 18.6262 4.74891 18.4743 4.68527C18.3223 4.62163 18.1593 4.58864 17.9946 4.58817C17.8298 4.58771 17.6666 4.61978 17.5143 4.68256C17.362 4.74534 17.2236 4.83758 17.107 4.954L16.056 6.004L20.525 10.488ZM14.321 9.368C14.4619 9.22773 14.6527 9.14898 14.8515 9.14898C15.0503 9.14898 15.2411 9.22773 15.382 9.368C15.5223 9.50892 15.601 9.69966 15.601 9.8985C15.601 10.0973 15.5223 10.2881 15.382 10.429L8.79001 17.02C8.72041 17.0896 8.63779 17.1448 8.54685 17.1825C8.45591 17.2201 8.35845 17.2395 8.26002 17.2395C8.16158 17.2395 8.06412 17.2201 7.97318 17.1825C7.88224 17.1448 7.79962 17.0896 7.73001 17.02C7.66041 16.9504 7.6052 16.8678 7.56754 16.7768C7.52987 16.6859 7.51048 16.5884 7.51048 16.49C7.51048 16.3916 7.52987 16.2941 7.56754 16.2032C7.6052 16.1122 7.66041 16.0296 7.73001 15.96L14.321 9.368ZM16.167 11.162C16.2367 11.0923 16.3194 11.0371 16.4104 10.9994C16.5014 10.9617 16.599 10.9423 16.6975 10.9423C16.796 10.9423 16.8936 10.9617 16.9846 10.9994C17.0756 11.0371 17.1583 11.0923 17.228 11.162C17.2977 11.2317 17.3529 11.3144 17.3906 11.4054C17.4283 11.4964 17.4478 11.594 17.4478 11.6925C17.4478 11.791 17.4283 11.8886 17.3906 11.9796C17.3529 12.0706 17.2977 12.1533 17.228 12.223L10.718 18.733C10.5765 18.8695 10.387 18.9451 10.1904 18.9433C9.99372 18.9415 9.80564 18.8625 9.66665 18.7234C9.52766 18.5842 9.44887 18.3961 9.44726 18.1994C9.44564 18.0028 9.52133 17.8134 9.65801 17.672L16.167 11.162Z" fill="black"/>
</svg>
