<svg width="23" height="22" viewBox="0 0 23 22" fill="none" xmlns="http://www.w3.org/2000/svg">
<g clip-path="url(#clip0_1_41)">
<path fill-rule="evenodd" clip-rule="evenodd" d="M0.979004 8.956C0.979004 4.006 4.992 -0.00700378 9.942 -0.00700378C14.893 -0.00700378 18.906 4.006 18.906 8.956C18.906 11.072 18.172 13.018 16.946 14.551L22.598 20.203C22.987 20.592 22.987 21.223 22.598 21.612C22.209 22.001 21.578 22.001 21.189 21.612L15.537 15.96C14.004 17.185 12.058 17.92 9.942 17.92C4.992 17.92 0.979004 13.907 0.979004 8.956ZM9.942 1.985C6.092 1.985 2.971 5.106 2.971 8.956C2.971 12.806 6.092 15.928 9.942 15.928C11.868 15.928 13.609 15.149 14.872 13.886C16.135 12.623 16.914 10.882 16.914 8.956C16.914 5.106 13.793 1.985 9.942 1.985Z" fill="#CCCCCC"/>
</g>
<defs>
<clipPath id="clip0_1_41">
<rect width="23" height="22" fill="white"/>
</clipPath>
</defs>
</svg>
