<svg width="26" height="26" viewBox="0 0 26 26" fill="none" xmlns="http://www.w3.org/2000/svg">
<path d="M9.582 4.58C9.5486 4.52297 9.49398 4.48149 9.43008 4.46463C9.36617 4.44776 9.29819 4.45688 9.241 4.49L7.509 5.49C7.4519 5.52307 7.41019 5.57736 7.39296 5.64105C7.37572 5.70474 7.38437 5.77266 7.417 5.83L8.563 7.814C8.64363 7.95389 8.67696 8.11606 8.65805 8.27641C8.63913 8.43676 8.56897 8.58672 8.458 8.704C7.78524 9.41592 7.28864 10.2756 7.008 11.214C6.96194 11.3687 6.86719 11.5044 6.73784 11.601C6.60848 11.6976 6.45142 11.7498 6.29 11.75H4C3.9337 11.75 3.87011 11.7763 3.82322 11.8232C3.77634 11.8701 3.75 11.9337 3.75 12V14C3.75 14.138 3.862 14.25 4 14.25H6.292C6.4536 14.25 6.61088 14.3021 6.74044 14.3987C6.86999 14.4953 6.96489 14.6311 7.011 14.786C7.287 15.713 7.777 16.576 8.458 17.296C8.56881 17.4134 8.63879 17.5634 8.65752 17.7238C8.67626 17.8841 8.64276 18.0462 8.562 18.186L7.417 20.17C7.40053 20.1985 7.38984 20.2299 7.38555 20.2626C7.38126 20.2952 7.38345 20.3283 7.392 20.3601C7.40055 20.3919 7.41528 20.4216 7.43536 20.4477C7.45544 20.4738 7.48046 20.4956 7.509 20.512L9.241 21.512C9.26948 21.5285 9.30094 21.5392 9.33356 21.5435C9.36618 21.5477 9.39933 21.5456 9.4311 21.537C9.46287 21.5285 9.49265 21.5137 9.51871 21.4936C9.54478 21.4736 9.56663 21.4485 9.583 21.42L10.727 19.437C10.8079 19.2971 10.9318 19.1871 11.0803 19.1233C11.2287 19.0595 11.3938 19.0454 11.551 19.083C12.515 19.313 13.507 19.305 14.448 19.081C14.6053 19.0435 14.7704 19.0577 14.9189 19.1217C15.0674 19.1857 15.1913 19.2959 15.272 19.436L16.417 21.42C16.487 21.54 16.639 21.58 16.759 21.512L18.491 20.512C18.5195 20.4955 18.5444 20.4736 18.5644 20.4475C18.5843 20.4214 18.599 20.3916 18.6074 20.3599C18.6159 20.3281 18.618 20.295 18.6136 20.2624C18.6093 20.2298 18.5985 20.1984 18.582 20.17L17.437 18.187C17.3878 18.1016 17.3558 18.0074 17.343 17.9097C17.3301 17.812 17.3367 17.7127 17.3622 17.6175C17.3878 17.5224 17.4318 17.4331 17.4918 17.355C17.5518 17.2768 17.6266 17.2112 17.712 17.162C17.7974 17.1128 17.8916 17.0808 17.9893 17.068C18.087 17.0551 18.1863 17.0617 18.2815 17.0872C18.3766 17.1128 18.4659 17.1568 18.544 17.2168C18.6222 17.2768 18.6878 17.3516 18.737 17.437L19.882 19.42C20.1139 19.822 20.1766 20.2995 20.0564 20.7477C19.9362 21.1959 19.6429 21.578 19.241 21.81L17.509 22.81C17.1072 23.0419 16.6297 23.1048 16.1815 22.9848C15.7333 22.8648 15.3512 22.5717 15.119 22.17L14.241 20.651C13.4188 20.7853 12.5804 20.7859 11.758 20.653L10.882 22.17C10.767 22.369 10.614 22.5435 10.4316 22.6834C10.2493 22.8233 10.0411 22.9258 9.81907 22.9853C9.59704 23.0447 9.36547 23.0598 9.1376 23.0297C8.90973 22.9997 8.69001 22.925 8.491 22.81L6.759 21.81C6.35729 21.5779 6.06422 21.1957 5.9442 20.7475C5.82419 20.2993 5.88706 19.8218 6.119 19.42L6.995 17.903C6.46856 17.2571 6.04984 16.5304 5.755 15.751H4C3.7701 15.751 3.54246 15.7057 3.33007 15.6177C3.11769 15.5297 2.92473 15.4007 2.76221 15.2381C2.59969 15.0755 2.47081 14.8824 2.38292 14.67C2.29504 14.4576 2.24987 14.2299 2.25 14V12C2.25 11.034 3.033 10.25 4 10.25H5.753C6.04955 9.47162 6.46886 8.74576 6.995 8.1L6.118 6.58C5.88606 6.17817 5.82319 5.70068 5.9432 5.25251C6.06322 4.80433 6.35629 4.42216 6.758 4.19L8.491 3.19C8.89283 2.95807 9.37032 2.89519 9.8185 3.01521C10.2667 3.13522 10.6488 3.4283 10.881 3.83L11.759 5.35C12.5812 5.21577 13.4196 5.21509 14.242 5.348L15.118 3.831C15.233 3.63196 15.386 3.45752 15.5684 3.31763C15.7507 3.17775 15.9589 3.07516 16.1809 3.01573C16.403 2.95629 16.6345 2.94118 16.8624 2.97126C17.0903 3.00133 17.31 3.076 17.509 3.191L19.241 4.191C19.6427 4.42316 19.9358 4.80533 20.0558 5.25351C20.1758 5.70168 20.1129 6.17917 19.881 6.581L19.005 8.098C19.537 8.75 19.953 9.478 20.245 10.25H22C22.966 10.25 23.75 11.034 23.75 12V14C23.75 14.4641 23.5656 14.9093 23.2374 15.2374C22.9092 15.5656 22.4641 15.75 22 15.75H19.71C19.5111 15.75 19.3203 15.671 19.1797 15.5303C19.039 15.3897 18.96 15.1989 18.96 15C18.96 14.8011 19.039 14.6103 19.1797 14.4697C19.3203 14.329 19.5111 14.25 19.71 14.25H22C22.0663 14.25 22.1299 14.2237 22.1768 14.1768C22.2237 14.1299 22.25 14.0663 22.25 14V12C22.25 11.9337 22.2237 11.8701 22.1768 11.8232C22.1299 11.7763 22.0663 11.75 22 11.75H19.708C19.5466 11.7498 19.3895 11.6976 19.2602 11.601C19.1308 11.5044 19.0361 11.3687 18.99 11.214C18.7109 10.2753 18.2148 9.41552 17.542 8.704C17.4312 8.58661 17.3612 8.43659 17.3425 8.27624C17.3237 8.1159 17.3572 7.95379 17.438 7.814L18.583 5.831C18.5995 5.80252 18.6102 5.77107 18.6145 5.73845C18.6187 5.70582 18.6165 5.67268 18.608 5.6409C18.5995 5.60913 18.5847 5.57936 18.5646 5.55329C18.5446 5.52722 18.5195 5.50538 18.491 5.489L16.759 4.489C16.7016 4.45605 16.6334 4.44723 16.5695 4.46448C16.5055 4.48173 16.4511 4.52364 16.418 4.581L15.273 6.564C15.1921 6.70391 15.0682 6.81394 14.9197 6.87773C14.7713 6.94152 14.6062 6.95564 14.449 6.918C13.4965 6.69151 12.5042 6.69219 11.552 6.92C11.3948 6.95764 11.2297 6.94352 11.0813 6.87973C10.9328 6.81594 10.8089 6.70591 10.728 6.566L9.582 4.58ZM13 10.75C12.736 10.75 12.484 10.795 12.25 10.878C12.1567 10.9127 12.0575 10.9285 11.958 10.9245C11.8586 10.9205 11.7609 10.8967 11.6708 10.8545C11.5806 10.8124 11.4998 10.7527 11.4329 10.679C11.366 10.6053 11.3145 10.519 11.2813 10.4251C11.2481 10.3313 11.234 10.2318 11.2396 10.1324C11.2453 10.0331 11.2707 9.93583 11.3143 9.84637C11.3579 9.75692 11.4189 9.67704 11.4937 9.61139C11.5685 9.54574 11.6556 9.49564 11.75 9.464C12.5296 9.18822 13.3786 9.17789 14.1647 9.43461C14.9508 9.69132 15.63 10.2007 16.0966 10.8835C16.5632 11.5662 16.791 12.3841 16.7446 13.2097C16.6983 14.0354 16.3802 14.8226 15.8401 15.4488C15.2999 16.0749 14.5679 16.505 13.758 16.6721C12.9481 16.8391 12.1056 16.7337 11.3618 16.3723C10.618 16.0109 10.0145 15.4138 9.64519 14.6739C9.27592 13.9339 9.16159 13.0927 9.32 12.281C9.36519 12.0932 9.48112 11.93 9.64363 11.8255C9.80614 11.7211 10.0027 11.6833 10.1923 11.7202C10.382 11.7571 10.5501 11.8657 10.6616 12.0235C10.7731 12.1812 10.8195 12.3759 10.791 12.567C10.7018 13.0219 10.7553 13.4932 10.9441 13.9165C11.1329 14.3399 11.4479 14.6945 11.8459 14.9321C12.2439 15.1696 12.7056 15.2785 13.1678 15.2437C13.6301 15.2089 14.0703 15.0321 14.4283 14.7377C14.7863 14.4432 15.0446 14.0454 15.1679 13.5985C15.2912 13.1517 15.2735 12.6777 15.1172 12.2413C14.9609 11.8049 14.6736 11.4275 14.2946 11.1605C13.9157 10.8936 13.4635 10.7502 13 10.75Z" fill="black"/>
</svg>
