<svg width="26" height="26" viewBox="0 0 26 26" fill="none" xmlns="http://www.w3.org/2000/svg">
<path fill-rule="evenodd" clip-rule="evenodd" d="M12.528 3.417C12.6615 3.30885 12.8282 3.24985 13 3.24985C13.1718 3.24985 13.3385 3.30885 13.472 3.417L19.472 8.274C19.5486 8.33598 19.6122 8.41244 19.6592 8.499C19.7062 8.58556 19.7357 8.68054 19.746 8.77851C19.7563 8.87647 19.7472 8.97551 19.7192 9.06996C19.6913 9.16441 19.645 9.25244 19.583 9.329C19.521 9.40556 19.4446 9.46916 19.358 9.51617C19.2714 9.56318 19.1765 9.59269 19.0785 9.60299C18.9805 9.6133 18.8815 9.60421 18.787 9.57624C18.6926 9.54828 18.6046 9.50198 18.528 9.44L13.75 5.572V20C13.75 20.1989 13.671 20.3897 13.5303 20.5303C13.3897 20.671 13.1989 20.75 13 20.75C12.8011 20.75 12.6103 20.671 12.4697 20.5303C12.329 20.3897 12.25 20.1989 12.25 20V5.572L7.472 9.44C7.39544 9.50198 7.30742 9.54828 7.21297 9.57624C7.11851 9.60421 7.01948 9.6133 6.92151 9.60299C6.82355 9.59269 6.72857 9.56318 6.642 9.51617C6.55544 9.46916 6.47898 9.40556 6.417 9.329C6.35502 9.25244 6.30872 9.16441 6.28075 9.06996C6.25278 8.97551 6.24369 8.87647 6.254 8.77851C6.26431 8.68054 6.29381 8.58556 6.34082 8.499C6.38784 8.41244 6.45144 8.33598 6.528 8.274L12.528 3.417ZM19.75 19C19.75 18.8011 19.829 18.6103 19.9697 18.4697C20.1103 18.329 20.3011 18.25 20.5 18.25H21C21.1989 18.25 21.3897 18.329 21.5303 18.4697C21.671 18.6103 21.75 18.8011 21.75 19C21.75 19.1989 21.671 19.3897 21.5303 19.5303C21.3897 19.671 21.1989 19.75 21 19.75H20.5C20.3011 19.75 20.1103 19.671 19.9697 19.5303C19.829 19.3897 19.75 19.1989 19.75 19ZM7.75 19C7.75 18.8011 7.82902 18.6103 7.96967 18.4697C8.11032 18.329 8.30109 18.25 8.5 18.25H9C9.19891 18.25 9.38968 18.329 9.53033 18.4697C9.67098 18.6103 9.75 18.8011 9.75 19C9.75 19.1989 9.67098 19.3897 9.53033 19.5303C9.38968 19.671 9.19891 19.75 9 19.75H8.5C8.30109 19.75 8.11032 19.671 7.96967 19.5303C7.82902 19.3897 7.75 19.1989 7.75 19ZM15.75 19C15.75 18.8011 15.829 18.6103 15.9697 18.4697C16.1103 18.329 16.3011 18.25 16.5 18.25H17C17.1989 18.25 17.3897 18.329 17.5303 18.4697C17.671 18.6103 17.75 18.8011 17.75 19C17.75 19.1989 17.671 19.3897 17.5303 19.5303C17.3897 19.671 17.1989 19.75 17 19.75H16.5C16.3011 19.75 16.1103 19.671 15.9697 19.5303C15.829 19.3897 15.75 19.1989 15.75 19ZM3.75 19C3.75 18.8011 3.82902 18.6103 3.96967 18.4697C4.11032 18.329 4.30109 18.25 4.5 18.25H5C5.19891 18.25 5.38968 18.329 5.53033 18.4697C5.67098 18.6103 5.75 18.8011 5.75 19C5.75 19.1989 5.67098 19.3897 5.53033 19.5303C5.38968 19.671 5.19891 19.75 5 19.75H4.5C4.30109 19.75 4.11032 19.671 3.96967 19.5303C3.82902 19.3897 3.75 19.1989 3.75 19ZM21.75 22C21.75 21.8011 21.829 21.6103 21.9697 21.4697C22.1103 21.329 22.3011 21.25 22.5 21.25H23C23.1989 21.25 23.3897 21.329 23.5303 21.4697C23.671 21.6103 23.75 21.8011 23.75 22C23.75 22.1989 23.671 22.3897 23.5303 22.5303C23.3897 22.671 23.1989 22.75 23 22.75H22.5C22.3011 22.75 22.1103 22.671 21.9697 22.5303C21.829 22.3897 21.75 22.1989 21.75 22ZM1.75 22C1.75 21.8011 1.82902 21.6103 1.96967 21.4697C2.11032 21.329 2.30109 21.25 2.5 21.25H3C3.19891 21.25 3.38968 21.329 3.53033 21.4697C3.67098 21.6103 3.75 21.8011 3.75 22C3.75 22.1989 3.67098 22.3897 3.53033 22.5303C3.38968 22.671 3.19891 22.75 3 22.75H2.5C2.30109 22.75 2.11032 22.671 1.96967 22.5303C1.82902 22.3897 1.75 22.1989 1.75 22ZM5.75 22C5.75 21.8011 5.82902 21.6103 5.96967 21.4697C6.11032 21.329 6.30109 21.25 6.5 21.25H7C7.19891 21.25 7.38968 21.329 7.53033 21.4697C7.67098 21.6103 7.75 21.8011 7.75 22C7.75 22.1989 7.67098 22.3897 7.53033 22.5303C7.38968 22.671 7.19891 22.75 7 22.75H6.5C6.30109 22.75 6.11032 22.671 5.96967 22.5303C5.82902 22.3897 5.75 22.1989 5.75 22ZM9.75 22C9.75 21.8011 9.82902 21.6103 9.96967 21.4697C10.1103 21.329 10.3011 21.25 10.5 21.25H11C11.1989 21.25 11.3897 21.329 11.5303 21.4697C11.671 21.6103 11.75 21.8011 11.75 22C11.75 22.1989 11.671 22.3897 11.5303 22.5303C11.3897 22.671 11.1989 22.75 11 22.75H10.5C10.3011 22.75 10.1103 22.671 9.96967 22.5303C9.82902 22.3897 9.75 22.1989 9.75 22ZM13.75 22C13.75 21.8011 13.829 21.6103 13.9697 21.4697C14.1103 21.329 14.3011 21.25 14.5 21.25H15C15.1989 21.25 15.3897 21.329 15.5303 21.4697C15.671 21.6103 15.75 21.8011 15.75 22C15.75 22.1989 15.671 22.3897 15.5303 22.5303C15.3897 22.671 15.1989 22.75 15 22.75H14.5C14.3011 22.75 14.1103 22.671 13.9697 22.5303C13.829 22.3897 13.75 22.1989 13.75 22ZM17.75 22C17.75 21.8011 17.829 21.6103 17.9697 21.4697C18.1103 21.329 18.3011 21.25 18.5 21.25H19C19.1989 21.25 19.3897 21.329 19.5303 21.4697C19.671 21.6103 19.75 21.8011 19.75 22C19.75 22.1989 19.671 22.3897 19.5303 22.5303C19.3897 22.671 19.1989 22.75 19 22.75H18.5C18.3011 22.75 18.1103 22.671 17.9697 22.5303C17.829 22.3897 17.75 22.1989 17.75 22Z" fill="black"/>
</svg>
