<svg width="22" height="22" viewBox="0 0 22 22" fill="none" xmlns="http://www.w3.org/2000/svg">
<g clip-path="url(#clip0_1_33)">
<path fill-rule="evenodd" clip-rule="evenodd" d="M10.955 12C6.34799 12 2.55299 15.5 2.05899 20H19.852C19.358 15.5 15.563 12 10.955 12ZM14.709 10.664C16.06 9.564 16.923 7.884 16.923 6C16.923 2.686 14.251 0 10.955 0C7.65999 0 4.98799 2.686 4.98799 6C4.98799 7.884 5.85099 9.564 7.20199 10.664C3.33599 12.084 0.48999 15.635 0.0689903 19.903C-0.0500097 21.107 0.93499 22 2.00399 22H19.907C20.976 22 21.961 21.107 21.842 19.903C21.421 15.635 18.575 12.084 14.709 10.664ZM10.955 2C8.75799 2 6.97699 3.791 6.97699 6C6.97699 8.209 8.75799 10 10.955 10C13.153 10 14.934 8.209 14.934 6C14.934 3.791 13.153 2 10.955 2Z" fill="#CCCCCC"/>
</g>
<defs>
<clipPath id="clip0_1_33">
<rect width="22" height="22" fill="white"/>
</clipPath>
</defs>
</svg>
