<svg width="30" height="30" viewBox="0 0 30 30" fill="none" xmlns="http://www.w3.org/2000/svg">
<path fill-rule="evenodd" clip-rule="evenodd" d="M4.96 25.96L25.96 4.96C26.0204 4.89959 26.0683 4.82787 26.101 4.74894C26.1337 4.67002 26.1505 4.58542 26.1505 4.49999C26.1505 4.41457 26.1337 4.32997 26.101 4.25104C26.0683 4.17212 26.0204 4.1004 25.96 4.03999C25.8996 3.97959 25.8279 3.93167 25.7489 3.89898C25.67 3.86628 25.5854 3.84946 25.5 3.84946C25.4146 3.84946 25.33 3.86628 25.251 3.89898C25.1721 3.93167 25.1004 3.97959 25.04 4.03999L4.03999 25.04C3.97959 25.1004 3.93167 25.1721 3.89898 25.251C3.86628 25.33 3.84946 25.4146 3.84946 25.5C3.84946 25.5854 3.86628 25.67 3.89898 25.7489C3.93167 25.8279 3.97959 25.8996 4.03999 25.96C4.1004 26.0204 4.17212 26.0683 4.25104 26.101C4.32997 26.1337 4.41457 26.1505 4.49999 26.1505C4.58542 26.1505 4.67002 26.1337 4.74894 26.101C4.82787 26.0683 4.89959 26.0204 4.96 25.96Z" fill="black"/>
<path fill-rule="evenodd" clip-rule="evenodd" d="M25.04 25.96L4.03999 4.96C3.918 4.838 3.84946 4.67253 3.84946 4.49999C3.84946 4.32746 3.918 4.16199 4.03999 4.03999C4.16199 3.918 4.32746 3.84946 4.49999 3.84946C4.67253 3.84946 4.838 3.918 4.96 4.03999L25.96 25.04C26.0204 25.1004 26.0683 25.1721 26.101 25.251C26.1337 25.33 26.1505 25.4146 26.1505 25.5C26.1505 25.5854 26.1337 25.67 26.101 25.7489C26.0683 25.8279 26.0204 25.8996 25.96 25.96C25.8996 26.0204 25.8279 26.0683 25.7489 26.101C25.67 26.1337 25.5854 26.1505 25.5 26.1505C25.4146 26.1505 25.33 26.1337 25.251 26.101C25.1721 26.0683 25.1004 26.0204 25.04 25.96Z" fill="black"/>
</svg>
