<svg width="30" height="30" viewBox="0 0 30 30" fill="none" xmlns="http://www.w3.org/2000/svg">
<path fill-rule="evenodd" clip-rule="evenodd" d="M15 4.64999C12.249 4.64999 9.75001 5.72199 7.89601 7.47299C7.77056 7.59127 7.60326 7.65488 7.43091 7.64982C7.25857 7.64475 7.09529 7.57143 6.97701 7.44599C6.85872 7.32054 6.79511 7.15324 6.80018 6.98089C6.80524 6.80855 6.87856 6.64527 7.00401 6.52699C9.1642 4.48317 12.0262 3.34603 15 3.34999C21.434 3.34999 26.65 8.56599 26.65 15C26.65 16.4 26.403 17.742 25.95 18.986C25.9209 19.0662 25.8762 19.1399 25.8185 19.2029C25.7609 19.2659 25.6914 19.3169 25.6141 19.353C25.5367 19.3891 25.453 19.4097 25.3677 19.4134C25.2824 19.4172 25.1972 19.4041 25.117 19.375C25.0368 19.3458 24.9631 19.3012 24.9001 19.2435C24.8371 19.1859 24.7861 19.1164 24.75 19.0391C24.7139 18.9617 24.6933 18.878 24.6896 18.7927C24.6858 18.7074 24.6989 18.6222 24.728 18.542C25.1408 17.4068 25.3514 16.2079 25.35 15C25.35 9.28399 20.716 4.64999 15 4.64999ZM4.88501 10.62C4.96528 10.6492 5.039 10.694 5.10195 10.7518C5.16491 10.8095 5.21586 10.8791 5.25189 10.9566C5.28793 11.034 5.30834 11.1178 5.31196 11.2032C5.31559 11.2885 5.30235 11.3738 5.27301 11.454C4.85937 12.5904 4.6485 13.7906 4.65001 15C4.65001 20.716 9.28301 25.35 15 25.35C17.75 25.35 20.25 24.278 22.103 22.527C22.1651 22.4684 22.2382 22.4225 22.318 22.3921C22.3978 22.3617 22.4829 22.3473 22.5682 22.3498C22.6536 22.3523 22.7377 22.3715 22.8156 22.4065C22.8936 22.4414 22.9639 22.4914 23.0225 22.5535C23.0811 22.6156 23.127 22.6887 23.1574 22.7685C23.1878 22.8483 23.2022 22.9333 23.1997 23.0187C23.1972 23.1041 23.178 23.1882 23.143 23.2661C23.1081 23.3441 23.0581 23.4144 22.996 23.473C20.8358 25.5168 17.9738 26.6539 15 26.65C8.56501 26.65 3.35001 21.434 3.35001 15C3.35001 13.599 3.59701 12.254 4.05201 11.008C4.11107 10.8461 4.23199 10.7143 4.38819 10.6415C4.54439 10.5688 4.72309 10.561 4.88501 10.62Z" fill="black"/>
<path fill-rule="evenodd" clip-rule="evenodd" d="M7.4821 7.41271C7.39963 7.39066 7.3223 7.35258 7.25455 7.30064C7.18679 7.2487 7.12993 7.18392 7.08722 7.11C7.0445 7.03608 7.01676 6.95447 7.00559 6.86983C6.99442 6.78519 7.00003 6.69918 7.0221 6.61671L8.3981 1.48171C8.42023 1.39924 8.45838 1.32194 8.51039 1.25421C8.56239 1.18649 8.62722 1.12967 8.70119 1.087C8.77515 1.04433 8.85679 1.01665 8.94145 1.00553C9.02611 0.994417 9.11213 1.00008 9.1946 1.02221C9.27707 1.04434 9.35438 1.08249 9.4221 1.1345C9.48983 1.1865 9.54664 1.25134 9.58931 1.3253C9.63198 1.39926 9.65966 1.4809 9.67078 1.56556C9.6819 1.65022 9.67623 1.73624 9.6541 1.81871L8.4451 6.32471L12.9521 7.53271C13.1141 7.58127 13.2508 7.69108 13.3332 7.83881C13.4156 7.98654 13.4371 8.16056 13.3933 8.32392C13.3494 8.48728 13.2436 8.6271 13.0983 8.7137C12.953 8.8003 12.7797 8.82685 12.6151 8.78771L7.4821 7.41271ZM17.2571 20.9697C17.2792 20.8872 17.3172 20.8099 17.3692 20.7422C17.4211 20.6744 17.4859 20.6175 17.5598 20.5748C17.6337 20.5321 17.7153 20.5044 17.8 20.4932C17.8846 20.482 17.9706 20.4876 18.0531 20.5097L23.1871 21.8867C23.2696 21.9088 23.3469 21.9468 23.4147 21.9988C23.4824 22.0507 23.5393 22.1155 23.582 22.1894C23.6247 22.2633 23.6524 22.345 23.6636 22.4296C23.6748 22.5142 23.6692 22.6002 23.6471 22.6827L22.2711 27.8167C22.2265 27.9833 22.1176 28.1253 21.9684 28.2116C21.8191 28.2978 21.6417 28.3213 21.4751 28.2767C21.3085 28.2322 21.1665 28.1233 21.0802 27.974C20.994 27.8247 20.9705 27.6473 21.0151 27.4807L22.2231 22.9737L17.7161 21.7667C17.6336 21.7447 17.5563 21.7066 17.4885 21.6546C17.4208 21.6027 17.3639 21.5379 17.3212 21.464C17.2785 21.3901 17.2508 21.3085 17.2396 21.2238C17.2284 21.1392 17.234 21.0532 17.2561 20.9707L17.2571 20.9697Z" fill="black"/>
</svg>
