<svg width="30" height="30" viewBox="0 0 30 30" fill="none" xmlns="http://www.w3.org/2000/svg">
<path fill-rule="evenodd" clip-rule="evenodd" d="M19.85 3.50001C19.85 3.85901 20.14 4.15001 20.5 4.15001H24.93L19.04 10.04C18.9796 10.1004 18.9317 10.1721 18.899 10.2511C18.8663 10.33 18.8495 10.4146 18.8495 10.5C18.8495 10.6725 18.918 10.838 19.04 10.96C19.162 11.082 19.3275 11.1505 19.5 11.1505C19.5854 11.1505 19.67 11.1337 19.749 11.101C19.8279 11.0683 19.8996 11.0204 19.96 10.96L25.85 5.07001V9.50001C25.85 9.6724 25.9185 9.83773 26.0404 9.95963C26.1623 10.0815 26.3276 10.15 26.5 10.15C26.6724 10.15 26.8377 10.0815 26.9596 9.95963C27.0815 9.83773 27.15 9.6724 27.15 9.50001V3.50001C27.15 3.32762 27.0815 3.16229 26.9596 3.04039C26.8377 2.91849 26.6724 2.85001 26.5 2.85001H20.5C20.3276 2.85001 20.1623 2.91849 20.0404 3.04039C19.9185 3.16229 19.85 3.32762 19.85 3.50001ZM19.85 26.5C19.85 26.3276 19.9185 26.1623 20.0404 26.0404C20.1623 25.9185 20.3276 25.85 20.5 25.85H24.93L19.04 19.96C18.918 19.838 18.8495 19.6725 18.8495 19.5C18.8495 19.3275 18.918 19.162 19.04 19.04C19.162 18.918 19.3275 18.8495 19.5 18.8495C19.6725 18.8495 19.838 18.918 19.96 19.04L25.85 24.93V20.5C25.85 20.3276 25.9185 20.1623 26.0404 20.0404C26.1623 19.9185 26.3276 19.85 26.5 19.85C26.6724 19.85 26.8377 19.9185 26.9596 20.0404C27.0815 20.1623 27.15 20.3276 27.15 20.5V26.5C27.15 26.6724 27.0815 26.8377 26.9596 26.9596C26.8377 27.0815 26.6724 27.15 26.5 27.15H20.5C20.3276 27.15 20.1623 27.0815 20.0404 26.9596C19.9185 26.8377 19.85 26.6724 19.85 26.5ZM10.15 3.50001C10.15 3.58537 10.1332 3.66989 10.1005 3.74875C10.0679 3.82761 10.02 3.89927 9.95963 3.95963C9.89927 4.01998 9.82761 4.06786 9.74875 4.10053C9.66989 4.13319 9.58537 4.15001 9.50001 4.15001H5.06901L10.959 10.04C11.081 10.1619 11.1496 10.3272 11.1497 10.4997C11.1498 10.6721 11.0814 10.8375 10.9595 10.9595C10.8376 11.0815 10.6723 11.1501 10.4999 11.1502C10.3274 11.1503 10.162 11.0819 10.04 10.96L4.15001 5.07001V9.50001C4.15001 9.6724 4.08152 9.83773 3.95963 9.95963C3.83773 10.0815 3.6724 10.15 3.50001 10.15C3.32762 10.15 3.16229 10.0815 3.04039 9.95963C2.91849 9.83773 2.85001 9.6724 2.85001 9.50001V3.50001C2.85001 3.32762 2.91849 3.16229 3.04039 3.04039C3.16229 2.91849 3.32762 2.85001 3.50001 2.85001H9.50001C9.6724 2.85001 9.83773 2.91849 9.95963 3.04039C10.0815 3.16229 10.15 3.32762 10.15 3.50001ZM10.15 26.5C10.15 26.3276 10.0815 26.1623 9.95963 26.0404C9.83773 25.9185 9.6724 25.85 9.50001 25.85H5.06901L10.959 19.96C11.081 19.8381 11.1496 19.6728 11.1497 19.5004C11.1498 19.3279 11.0814 19.1625 10.9595 19.0405C10.8376 18.9185 10.6723 18.8499 10.4999 18.8498C10.3274 18.8497 10.162 18.9181 10.04 19.04L4.15001 24.93V20.5C4.15001 20.3276 4.08152 20.1623 3.95963 20.0404C3.83773 19.9185 3.6724 19.85 3.50001 19.85C3.32762 19.85 3.16229 19.9185 3.04039 20.0404C2.91849 20.1623 2.85001 20.3276 2.85001 20.5V26.5C2.85001 26.859 3.14001 27.15 3.50001 27.15H9.50001C9.6724 27.15 9.83773 27.0815 9.95963 26.9596C10.0815 26.8377 10.15 26.6724 10.15 26.5Z" fill="black"/>
</svg>
